<?xml version="1.0" standalone="no"?>
<!DOCTYPE svg PUBLIC "-//W3C//DTD SVG 20010904//EN"
 "http://www.w3.org/TR/2001/REC-SVG-20010904/DTD/svg10.dtd">
<svg version="1.0" xmlns="http://www.w3.org/2000/svg"
 width="70.000000pt" height="70.000000pt" viewBox="0 0 70.000000 70.000000"
 preserveAspectRatio="xMidYMid meet">
<metadata>
Created by potrace 1.14, written by Peter Selinger 2001-2017
</metadata>
<g transform="translate(0.000000,70.000000) scale(0.100000,-0.100000)"
fill="#000000" stroke="none">
<path d="M41 438 c0 -145 3 -257 6 -250 2 6 16 12 29 12 16 0 24 6 25 18 4 87
8 114 19 127 7 8 9 15 5 15 -4 0 -2 7 5 15 6 8 9 19 5 25 -9 15 55 140 72 140
7 0 13 8 13 18 0 18 35 46 60 47 8 0 15 8 15 18 0 40 89 63 100 27 3 -11 11
-20 16 -20 6 0 7 -4 4 -10 -3 -5 -2 -10 4 -10 5 0 11 -12 13 -27 3 -24 8 -28
33 -28 29 0 30 2 28 40 -3 37 -2 38 9 17 8 -17 9 -34 1 -62 -9 -34 -8 -39 9
-43 19 -5 25 -42 8 -52 -6 -3 -10 -15 -10 -25 0 -10 -10 -26 -23 -34 -15 -12
-25 -33 -32 -74 l-10 -57 -50 -3 c-44 -3 -64 -13 -65 -34 0 -4 14 -2 32 3 23
6 34 5 40 -4 12 -19 10 -27 -8 -27 -13 0 -14 -3 -4 -15 10 -12 9 -16 -4 -21
-13 -5 -15 -15 -9 -48 3 -22 13 -51 21 -63 9 -15 10 -23 3 -23 -6 0 -11 -7
-11 -15 0 -13 21 -15 128 -15 l127 0 4 350 4 350 -307 0 -306 0 1 -262z"/>
<path d="M278 593 c-24 -4 -26 -7 -16 -22 10 -17 13 -17 39 -2 16 9 29 19 29
24 0 7 -4 7 -52 0z"/>
<path d="M211 451 c-11 -7 -10 -11 6 -20 22 -11 33 -6 33 16 0 15 -18 17 -39
4z"/>
<path d="M200 411 c0 -5 9 -19 20 -32 21 -26 27 -11 10 22 -11 19 -30 26 -30
10z"/>
<path d="M370 394 c-11 -12 -10 -18 3 -32 16 -15 19 -15 40 6 19 19 20 24 7
32 -21 14 -36 12 -50 -6z"/>
<path d="M237 303 c-7 -12 -1 -119 7 -132 4 -6 20 -10 34 -9 15 1 33 -1 39 -5
13 -8 43 1 43 14 0 5 -5 9 -10 9 -22 0 -71 56 -80 92 -10 36 -23 48 -33 31z"/>
<path d="M127 250 c3 -11 12 -20 19 -20 12 0 12 4 2 20 -7 11 -16 20 -19 20
-4 0 -5 -9 -2 -20z"/>
<path d="M207 54 c7 -3 10 -11 7 -18 -6 -17 23 -29 32 -14 7 12 -22 39 -40 37
-6 0 -6 -3 1 -5z"/>
<path d="M320 30 c0 -16 5 -21 23 -18 12 2 22 10 22 18 0 8 -10 16 -22 18 -18
3 -23 -2 -23 -18z"/>
</g>
</svg>
