<?xml version="1.0" standalone="no"?>
<!DOCTYPE svg PUBLIC "-//W3C//DTD SVG 20010904//EN"
 "http://www.w3.org/TR/2001/REC-SVG-20010904/DTD/svg10.dtd">
<svg version="1.0" xmlns="http://www.w3.org/2000/svg"
 width="607.000000pt" height="607.000000pt" viewBox="0 0 607.000000 607.000000"
 preserveAspectRatio="xMidYMid meet">
<metadata>
Created by potrace 1.14, written by Peter Selinger 2001-2017
</metadata>
<g transform="translate(0.000000,607.000000) scale(0.100000,-0.100000)"
fill="#000000" stroke="none">
<path d="M1693 5625 c-243 -68 -390 -279 -432 -620 -28 -232 1 -552 80 -884
16 -68 28 -125 27 -127 -2 -1 -52 -16 -113 -34 -164 -47 -364 -124 -510 -195
-402 -197 -620 -431 -641 -688 -8 -94 8 -172 58 -277 35 -72 56 -100 147 -191
66 -66 142 -130 201 -168 181 -119 497 -258 745 -327 55 -15 103 -31 108 -34
4 -4 -6 -61 -22 -128 -125 -510 -121 -938 11 -1212 49 -103 151 -211 238 -253
192 -94 422 -68 710 79 197 100 402 250 621 454 l109 102 85 -80 c456 -432
887 -650 1192 -604 457 69 615 632 418 1486 -19 82 -33 152 -30 155 3 2 60 21
128 42 339 103 602 225 794 368 95 70 216 197 261 272 182 309 50 633 -365
896 -175 110 -459 232 -711 304 -103 29 -113 35 -109 53 3 12 19 84 37 161 88
387 102 743 40 993 -31 120 -99 250 -170 321 -68 68 -168 123 -257 142 -85 17
-239 6 -348 -26 -252 -73 -576 -282 -857 -554 l-108 -104 -103 99 c-283 273
-612 487 -862 560 -113 33 -291 42 -372 19z m357 -140 c165 -53 375 -173 560
-319 106 -84 330 -286 330 -298 0 -4 -45 -59 -100 -121 -56 -61 -142 -164
-193 -228 -77 -97 -99 -120 -137 -134 -120 -47 -246 -119 -375 -215 -48 -35
-58 -38 -245 -68 -107 -18 -241 -42 -297 -55 l-103 -23 -14 50 c-28 95 -76
352 -92 492 -18 154 -15 408 6 504 51 239 150 379 305 430 87 29 239 23 355
-15z m2311 15 c156 -49 255 -185 306 -422 27 -126 25 -436 -5 -623 -21 -129
-54 -292 -81 -391 l-11 -41 -102 24 c-109 24 -446 83 -479 83 -10 0 -55 27
-100 60 -94 70 -182 120 -295 170 -79 34 -83 38 -173 150 -51 63 -139 168
-197 232 -57 64 -104 121 -104 126 0 13 193 187 313 284 373 298 699 420 928
348z m-1306 -789 c8 -16 18 -67 21 -114 l7 -84 -78 -6 c-43 -4 -80 -5 -83 -2
-11 11 92 235 109 235 5 0 15 -13 24 -29z m-113 -58 c-16 -32 -40 -86 -53
-121 -17 -44 -30 -64 -44 -67 -54 -11 -96 -13 -93 -6 4 12 209 251 214 251 2
0 -9 -26 -24 -57z m294 -106 c42 -49 73 -91 71 -93 -4 -4 -96 11 -101 17 -1 2
-12 29 -23 59 -12 30 -29 73 -38 95 -16 36 -16 38 0 25 9 -7 50 -54 91 -103z
m-194 -63 c33 -6 36 -9 42 -48 3 -22 6 -90 7 -151 2 -103 1 -110 -17 -108 -10
1 -66 -4 -124 -11 -58 -7 -107 -12 -109 -10 -13 11 49 295 71 321 11 14 69 17
130 7z m324 -161 c-10 -10 -19 5 -10 18 6 11 8 11 12 0 2 -7 1 -15 -2 -18z
m-338 -310 l3 -133 -24 0 c-13 0 -59 -3 -102 -7 l-78 -6 7 124 c4 68 10 127
15 132 9 9 115 26 151 23 l25 -1 3 -132z m492 117 c0 -5 -5 -10 -11 -10 -5 0
-7 5 -4 10 3 6 8 10 11 10 2 0 4 -4 4 -10z m-1330 -135 c0 -30 -4 -55 -10 -55
-5 0 -10 25 -10 55 0 30 5 55 10 55 6 0 10 -25 10 -55z m569 -21 c-25 -65 -39
-88 -39 -60 0 19 51 128 57 122 2 -1 -6 -30 -18 -62z m959 16 c12 0 22 -4 22
-10 0 -5 -20 -10 -45 -10 -35 0 -45 4 -45 16 0 12 6 15 23 10 12 -3 32 -6 45
-6z m-1789 -17 c-7 -10 -26 -33 -41 -51 -52 -61 -129 -183 -183 -289 -54 -105
-54 -106 -66 -77 -16 41 -87 250 -103 306 l-14 46 76 17 c89 20 310 63 331 64
11 1 11 -2 0 -16z m2333 -8 c73 -13 165 -32 204 -40 l72 -17 -25 -80 c-13 -44
-42 -128 -62 -187 l-38 -106 -38 75 c-46 91 -125 214 -190 295 -68 84 -68 85
-62 85 3 0 66 -11 139 -25z m-562 -41 c0 -14 -4 -22 -10 -19 -5 3 -10 17 -10
31 0 14 4 22 10 19 6 -3 10 -17 10 -31z m-1564 -4 c8 0 14 -4 14 -10 0 -5 -16
-10 -35 -10 -33 0 -43 8 -28 24 4 3 13 4 21 1 7 -3 20 -5 28 -5z m-678 -205
c27 -82 68 -198 91 -256 l42 -107 -20 -88 c-34 -152 -45 -298 -31 -416 6 -57
15 -120 20 -141 7 -33 2 -55 -30 -140 -20 -56 -57 -162 -81 -234 -24 -73 -49
-133 -55 -133 -7 0 -72 18 -146 41 -368 113 -683 276 -846 437 -115 115 -169
215 -179 333 -26 310 367 622 1043 827 71 22 132 37 135 33 4 -3 29 -73 57
-156z m3342 121 c391 -118 686 -271 865 -451 149 -150 201 -291 161 -440 -61
-230 -327 -445 -767 -618 -109 -43 -370 -127 -395 -127 -7 0 -24 39 -39 88
-15 48 -49 149 -77 225 l-50 138 11 97 c21 191 22 221 11 333 -6 63 -20 151
-29 196 l-18 81 59 158 c32 87 73 205 91 261 24 80 34 102 47 98 8 -2 67 -20
130 -39z m-2597 -26 c-1 -30 -5 -71 -9 -90 -5 -30 -8 -32 -14 -15 -5 11 -9 53
-9 93 -1 65 1 73 17 70 14 -3 17 -13 15 -58z m517 44 c0 -9 -9 -50 -19 -92
-11 -43 -22 -96 -26 -120 -4 -24 -9 -41 -11 -39 -6 6 14 171 28 225 10 41 28
58 28 26z m310 -213 l0 -218 -86 -7 c-48 -3 -89 -5 -91 -3 -7 8 -23 421 -16
428 10 9 58 15 136 17 l57 2 0 -219z m-502 95 c6 -28 -13 -40 -32 -21 -13 14
-14 20 -5 31 15 18 33 13 37 -10z m1042 20 c0 -3 -4 -8 -10 -11 -5 -3 -10 -1
-10 4 0 6 5 11 10 11 6 0 10 -2 10 -4z m440 -121 c0 -30 -4 -55 -10 -55 -5 0
-10 25 -10 55 0 30 5 55 10 55 6 0 10 -25 10 -55z m-1832 -42 c5 -17 -26 -29
-40 -15 -6 6 -7 15 -3 22 9 14 37 9 43 -7z m504 -90 c2 -41 -2 -78 -9 -93 -11
-22 -13 -13 -13 68 0 106 17 125 22 25z m1323 57 c4 -6 -5 -10 -19 -10 -14 0
-26 5 -26 10 0 6 9 10 19 10 11 0 23 -4 26 -10z m4 -82 c0 -33 -2 -38 -9 -23
-12 28 -12 65 0 65 6 0 10 -19 9 -42z m-159 -57 c0 -5 -12 -18 -27 -28 -28
-19 -35 -22 -128 -64 -27 -13 -53 -25 -57 -27 -5 -2 -8 3 -8 11 0 25 52 79 95
98 42 19 125 26 125 10z m-820 -25 c0 -4 -35 -84 -61 -141 -7 -16 -16 -39 -20
-50 -6 -17 -7 -17 -8 -2 -1 9 -5 17 -11 17 -15 0 -50 76 -56 124 -6 43 -6 45
22 49 39 5 134 8 134 3z m309 -53 c0 -32 -3 -52 -6 -44 -4 11 -7 11 -14 0 -7
-12 -2 61 7 89 8 28 14 9 13 -45z m-626 22 c-3 -9 -8 -14 -10 -11 -3 3 -2 9 2
15 9 16 15 13 8 -4z m346 -107 c29 -87 29 -88 -29 -88 -27 0 -50 4 -50 8 0 11
37 119 45 132 10 16 12 13 34 -52z m-859 12 c0 -5 -16 -10 -35 -10 -19 0 -35
5 -35 10 0 6 16 10 35 10 19 0 35 -4 35 -10z m484 -39 c-4 -22 -10 -41 -15
-41 -12 0 -11 5 3 51 14 49 21 44 12 -10z m623 -13 c-3 -8 -6 -5 -6 6 -1 11 2
17 5 13 3 -3 4 -12 1 -19z m-1137 -70 c-1 -98 -17 -88 -27 17 -5 56 -4 65 11
65 14 0 16 -12 16 -82z m1546 36 c-3 -26 -6 -58 -6 -72 0 -45 -7 -19 -15 51
-6 59 -5 67 11 67 14 0 16 -7 10 -46z m-406 -29 c0 -8 -4 -15 -10 -15 -5 0
-10 7 -10 15 0 8 5 15 10 15 6 0 10 -7 10 -15z m-594 -4 c-10 -16 -56 -20 -56
-5 0 9 11 14 31 14 16 0 28 -4 25 -9z m624 -1 c0 -5 -2 -10 -4 -10 -3 0 -8 5
-11 10 -3 6 -1 10 4 10 6 0 11 -4 11 -10z m-301 -221 c1 -117 -1 -227 -5 -245
-6 -32 -8 -34 -50 -34 -51 0 -50 -3 -29 107 8 43 15 116 15 163 0 47 3 115 7
153 6 65 7 67 33 67 l27 0 2 -211z m-338 171 c5 0 9 -119 9 -286 l0 -285 -27
3 -28 3 -3 275 c-1 151 0 281 3 288 3 8 12 11 21 8 9 -3 20 -6 25 -6z m251
-110 l-8 -115 -8 76 c-5 50 -4 91 4 119 6 23 13 40 15 38 3 -2 1 -56 -3 -118z
m-493 -116 c24 -17 24 -16 5 -141 -5 -38 -9 -43 -33 -43 -14 0 -36 -3 -47 -6
-19 -5 -22 0 -28 43 -3 26 -9 64 -12 83 -10 65 58 103 115 64z m1570 -81 c0
-10 -4 -27 -9 -38 -7 -16 -9 -13 -9 18 -1 20 4 37 9 37 6 0 10 -8 9 -17z m1
-73 c0 -5 -11 -10 -25 -10 -14 0 -25 5 -25 10 0 6 11 10 25 10 14 0 25 -4 25
-10z m-10 -65 c0 -19 -4 -35 -10 -35 -5 0 -10 16 -10 35 0 19 5 35 10 35 6 0
10 -16 10 -35z m-1742 -58 c4 -20 -25 -34 -40 -19 -15 15 -1 44 19 40 10 -2
19 -11 21 -21z m785 7 l77 -7 0 -43 0 -44 -100 0 c-91 0 -100 2 -100 19 0 10
-3 33 -6 50 -7 36 -6 36 129 25z m-295 -104 l32 0 0 -54 0 -54 -67 -4 c-38 -3
-71 -3 -75 -1 -5 2 -8 28 -8 57 0 29 3 56 8 60 4 4 23 5 42 2 19 -3 50 -6 68
-6z m628 0 c22 0 24 -4 24 -55 l0 -55 -70 0 -70 0 0 61 0 62 46 -7 c26 -3 57
-6 70 -6z m269 -20 c4 -6 1 -17 -5 -26 -10 -11 -16 -12 -26 -3 -11 9 -11 15
-3 25 14 17 25 18 34 4z m-695 -92 c-21 -108 -33 -205 -27 -198 3 3 15 58 27
124 29 160 32 168 72 164 l32 -3 23 -124 c13 -68 25 -127 28 -129 8 -9 6 19
-14 133 -11 61 -15 114 -11 119 20 21 38 -10 79 -138 27 -84 49 -136 57 -136
7 0 18 -19 24 -42 6 -24 15 -56 20 -72 6 -16 10 -45 9 -65 -1 -33 -2 -34 -9
-11 -17 54 -10 -55 10 -144 21 -93 27 -250 11 -275 -6 -10 -28 24 -76 118 -37
73 -70 130 -73 127 -3 -3 -6 -131 -7 -283 -1 -300 -8 -354 -34 -263 -11 41
-14 95 -12 218 1 91 -2 168 -7 175 -5 7 -12 49 -16 94 -7 96 -14 122 -27 101
-5 -7 -9 -25 -9 -40 0 -15 -6 -31 -13 -35 -21 -13 -38 -119 -47 -303 -5 -96
-12 -195 -16 -220 l-6 -45 -16 30 c-14 25 -16 68 -17 267 0 130 -3 239 -6 243
-4 3 -29 -36 -56 -86 -27 -51 -54 -94 -61 -97 -17 -5 -25 61 -18 141 12 129
18 170 27 194 5 13 9 39 9 57 0 55 40 269 56 301 9 17 26 62 39 102 28 87 31
93 54 93 17 0 17 -4 1 -92z m-1255 -138 c15 -30 39 -72 52 -93 13 -22 23 -41
20 -43 -6 -6 -250 46 -258 54 -6 6 48 183 81 267 l11 29 33 -79 c18 -44 45
-105 61 -135z m2816 -81 c-6 -7 -244 -60 -248 -55 -2 1 28 63 65 137 37 74 73
150 81 169 l13 35 48 -140 c26 -77 45 -143 41 -146z m-403 248 c2 -10 -3 -17
-12 -17 -18 0 -29 16 -21 31 9 14 29 6 33 -14z m-740 -57 c12 0 22 -4 22 -9 0
-12 -112 -23 -123 -12 -18 18 5 33 42 27 20 -3 46 -6 59 -6z m-968 -19 c0 -11
-4 -22 -9 -25 -12 -8 -34 21 -26 34 11 17 35 11 35 -9z m375 4 c0 -5 -30 -11
-67 -12 -55 -2 -68 0 -68 13 0 12 12 14 68 12 37 -2 67 -7 67 -13z m-508 -11
c3 -8 -2 -23 -11 -32 -15 -15 -17 -15 -32 0 -21 21 -11 48 16 48 11 0 23 -7
27 -16z m482 -40 c2 -2 -6 -27 -18 -55 -11 -28 -21 -60 -21 -70 0 -10 -4 -20
-8 -23 -10 -6 -53 145 -45 157 5 8 82 0 92 -9z m619 1 c5 -5 -20 -119 -28
-128 -4 -4 -17 20 -30 55 -12 35 -25 69 -28 77 -4 11 4 12 39 6 24 -4 46 -9
47 -10z m-818 -52 c-1 -5 -7 -19 -15 -33 -9 -15 -14 -54 -15 -101 0 -63 -5
-85 -25 -122 -22 -38 -30 -45 -52 -42 -19 2 -33 -5 -46 -21 -14 -18 -28 -24
-57 -24 -21 0 -42 5 -46 11 -4 7 -9 8 -17 0 -7 -7 -7 -14 2 -24 15 -19 5 -42
-23 -55 -19 -9 -30 -6 -57 13 -41 27 -79 77 -79 103 0 23 19 42 41 42 10 0 19
11 22 30 8 39 56 64 106 56 l36 -6 -3 40 c-7 68 52 107 122 80 20 -7 26 -6 26
3 0 21 39 57 60 57 11 0 20 -3 20 -7z m55 -47 c-10 -14 -19 -56 -22 -100 -3
-42 -10 -76 -14 -76 -5 0 -9 34 -9 75 0 66 4 81 28 117 18 28 28 36 30 25 2
-9 -4 -27 -13 -41z m941 38 c21 -10 37 -26 40 -41 5 -17 10 -21 17 -14 33 33
118 -7 137 -63 9 -29 17 -36 37 -36 35 0 63 -27 63 -61 0 -19 6 -30 20 -34 34
-11 43 -41 23 -76 -51 -86 -175 -93 -213 -12 -12 25 -19 30 -30 23 -8 -5 -27
-10 -42 -10 -24 0 -32 9 -58 60 -25 49 -30 71 -30 130 0 40 -6 86 -15 107 -8
19 -15 37 -15 39 0 9 35 3 66 -12z m-752 -186 c-4 -40 -9 -67 -12 -60 -5 17 8
145 15 139 2 -3 1 -38 -3 -79z m-614 46 c0 -3 -6 -12 -14 -20 -11 -10 -41 -14
-111 -14 -88 0 -97 -2 -102 -20 -3 -11 -11 -20 -18 -20 -13 0 -29 56 -19 71 6
10 264 13 264 3z m1907 -7 c3 -3 2 -19 -2 -34 -6 -20 -9 -23 -12 -11 -4 15
-19 18 -100 20 -62 2 -98 7 -100 15 -2 6 4 14 14 17 23 6 192 0 200 -7z
m-2399 -83 l191 -37 72 -83 c175 -202 384 -343 624 -423 50 -16 107 -32 127
-36 46 -9 132 -103 154 -170 16 -46 30 -57 36 -30 2 13 5 12 15 -4 11 -18 3
-29 -85 -112 -277 -262 -578 -458 -807 -524 -377 -109 -600 62 -656 501 -14
118 -7 371 16 524 16 104 82 417 92 433 3 5 11 6 17 4 7 -3 99 -22 204 -43z
m2876 -6 c20 -70 72 -330 88 -443 7 -51 13 -177 12 -290 0 -169 -4 -215 -22
-294 -46 -199 -147 -340 -279 -392 -87 -34 -236 -32 -358 5 -233 70 -529 262
-795 513 -80 76 -92 92 -86 111 7 21 9 22 20 7 17 -23 29 -6 61 81 33 91 55
111 147 133 252 62 452 175 644 366 56 55 114 117 130 137 30 37 30 37 219 76
105 22 193 40 197 41 4 0 14 -23 22 -51z m-2476 3 c-9 -15 -15 -17 -25 -9 -20
16 -15 28 12 28 22 0 24 -2 13 -19z m-25 -98 c143 -151 342 -278 537 -343 52
-18 96 -33 98 -35 1 -1 -6 -5 -16 -7 -58 -16 -270 75 -420 178 -88 61 -279
242 -303 286 -21 39 28 2 104 -79z m554 83 c1 -1 -11 -29 -26 -61 -16 -33 -43
-100 -60 -150 -18 -49 -36 -94 -41 -99 -5 -5 -11 12 -15 38 -9 60 9 148 46
227 28 59 30 60 61 54 18 -4 34 -8 35 -9z m1441 -18 c-75 -107 -269 -278 -373
-331 -171 -87 -355 -155 -355 -132 0 7 36 25 83 40 232 77 432 212 603 408 46
54 78 65 42 15z m-698 -6 c0 -15 6 -52 14 -82 8 -30 13 -57 11 -58 -7 -7 -33
54 -48 111 -14 55 -14 57 4 57 14 0 19 -7 19 -28z m87 16 c22 -30 74 -160 79
-195 4 -35 4 -36 -7 -13 -6 14 -31 67 -55 118 -24 52 -44 96 -44 98 0 9 18 3
27 -8z m-630 -490 c-3 -8 -6 -5 -6 6 -1 11 2 17 5 13 3 -3 4 -12 1 -19z m224
-195 c2 -46 -10 -103 -21 -103 -11 0 -30 56 -30 87 0 13 7 38 16 55 14 26 18
29 25 16 5 -9 10 -34 10 -55z"/>
</g>
</svg>
